Coordinates
version=1
nRows=23
nColumns=23
inDegrees=yes

Units are S.I. units (second, meters, Newtons, ...)
If the header above contains a line with 'inDegrees', this indicates whether rotational values are in degrees (yes) or radians (no).

endheader
time	pelvis_tilt	pelvis_list	pelvis_rotation	pelvis_tx	pelvis_ty	pelvis_tz	hip_flexion_r	hip_adduction_r	hip_rotation_r	knee_angle_r	knee_angle_r_beta	ankle_angle_r	subtalar_angle_r	mtp_angle_r	hip_flexion_l	hip_adduction_l	hip_rotation_l	knee_angle_l	knee_angle_l_beta	ankle_angle_l	subtalar_angle_l	mtp_angle_l
      7.50000000	    -18.00985557	      1.95604302	     -3.05712552	      2.22502279	      0.99054782	      0.99487298	     71.21242841	      7.26019961	      3.99394085	    100.38181820	      1.75199324	     12.42597986	    -17.53725248	      0.00000000	     -9.24973585	      5.12150375	    -11.20642915	     14.92207416	      0.26043933	    -17.91039161	      2.52267377	      0.00000000
      7.50666667	    -18.17741440	      1.75636685	     -3.31027559	      2.22689479	      0.99323687	      0.99502778	     71.51992419	      7.52942097	      3.56211562	     96.40457988	      1.68257733	     12.74898741	    -19.19814626	      0.00000000	     -9.88679815	      4.66064710	    -13.52611938	     15.75941716	      0.27505372	    -20.39549396	      2.37426918	      0.00000000
      7.51333333	    -18.05832099	      1.33283670	     -3.41382338	      2.22878211	      0.99618709	      0.99524706	     71.26144945	      7.73808578	      2.88990099	     92.20442163	      1.60927074	     13.07424136	    -20.97427195	      0.00000000	    -10.63924683	      3.86257764	    -15.59625945	     17.09564645	      0.29837532	    -22.05297468	      2.47591210	      0.00000000
      7.52000000	    -17.82329478	      0.85778898	     -3.44106842	      2.23056160	      0.99893149	      0.99560439	     70.67656767	      7.90484188	      2.17671886	     87.86280254	      1.53349519	     13.48691911	    -22.49959431	      0.00000000	    -11.39898655	      2.95904926	    -17.21797703	     18.75190468	      0.32728248	    -22.99591639	      2.36623978	      0.00000000
      7.52666667	    -17.42303292	      0.32591778	     -3.34438817	      2.23218058	      1.00152275	      0.99602438	     69.71302132	      7.98535002	      1.40691557	     83.38457173	      1.45533532	     13.93743840	    -23.78316971	      0.00000000	    -12.21768580	      1.98767850	    -18.11585409	     20.68253825	      0.36097839	    -23.26293918	      1.98131120	      0.00000000
      7.53333333	    -16.88285082	     -0.26345878	     -3.19893678	      2.23367898	      1.00395243	      0.99656266	     68.39951127	      8.06584430	      0.60394671	     78.76501306	      1.37470881	     14.44004919	    -24.55508151	      0.00000000	    -13.09616589	      1.01602962	    -18.27909477	     22.77827144	      0.39755583	    -23.00753966	      1.32264110	      0.00000000
      7.54000000	    -16.29389799	     -0.76186706	     -2.97600272	      2.23493144	      1.00601415	      0.99711277	     66.87035731	      8.05923402	     -0.09553478	     74.06386403	      1.29265828	     14.95265006	    -24.88540463	      0.00000000	    -13.87985659	      0.22523127	    -17.61950442	     25.07360260	      0.43761692	    -22.37669558	      0.30189005	      0.00000000
      7.54666667	    -16.07102414	     -0.82586457	     -2.73615683	      2.23564514	      1.00692392	      0.99773227	     65.66242492	      7.86123031	     -0.36052581	     69.42450693	      1.21168623	     15.47725443	    -24.63329939	      0.00000000	    -14.01188584	     -0.04196749	    -16.22818820	     27.73354328	      0.48404164	    -21.46697784	     -1.07848551	      0.00000000
      7.55333333	    -15.14283902	     -1.30370735	     -2.37629961	      2.23660594	      1.00877724	      0.99796058	     63.42080636	      7.73441305	     -1.02174544	     64.56186820	      1.12681717	     15.99021517	    -23.75745905	      0.00000000	    -14.83504428	     -0.55521965	    -14.28996825	     30.42718480	      0.53105456	    -20.72266970	     -2.68647788	      0.00000000
      7.56000000	    -14.67340046	     -1.30358842	     -2.05470311	      2.23704495	      1.00939287	      0.99814914	     61.63187783	      7.41568584	     -1.19847803	     59.83235314	      1.04427156	     16.57557725	    -22.14771285	      0.00000000	    -14.89160591	     -0.45087052	    -11.90911499	     33.51506743	      0.58494828	    -19.97072568	     -4.52983510	      0.00000000
      7.56666667	    -14.25313627	     -1.13559662	     -1.76987306	      2.23722927	      1.00940564	      0.99813677	     59.82637815	      7.03052535	     -1.17670548	     55.21721722	      0.96372224	     17.23365587	    -19.74317812	      0.00000000	    -14.70048880	     -0.02332537	     -9.36269139	     36.90475288	      0.64410945	    -19.38869901	     -6.46682644	      0.00000000
      7.57333333	    -13.86954181	     -0.86121807	     -1.52778521	      2.23726740	      1.00888969	      0.99787994	     58.00555104	      6.59105307	     -1.02519687	     50.76401710	      0.88599924	     17.97465340	    -16.56232296	      0.00000000	    -14.30823994	      0.65224508	     -6.84485444	     40.56352334	      0.70796704	    -19.05076712	     -8.39506762	      0.00000000
      7.58000000	    -13.51728405	     -0.52880336	     -1.33247034	      2.23722295	      1.00781129	      0.99739429	     56.19107125	      6.14917659	     -0.74205976	     46.54453131	      0.81235532	     18.69104477	    -12.82939330	      0.00000000	    -13.74655937	      1.50428231	     -4.50398671	     44.45777291	      0.77593452	    -18.95046589	    -10.19344259	      0.00000000
      7.58666667	    -13.15310958	     -0.24240476	     -1.22976906	      2.23712646	      1.00623459	      0.99679888	     54.35270394	      5.81935049	     -0.34997671	     42.58950929	      0.74332716	     19.29615181	     -8.81630424	      0.00000000	    -13.08408690	      2.35962632	     -2.57628479	     48.55356572	      0.84741959	    -19.07224341	    -11.75717136	      0.00000000
      7.59333333	    -12.86253792	     -0.05452941	     -1.22596181	      2.23698845	      1.00403322	      0.99619681	     52.59466080	      5.71775395	      0.31846614	     38.93471754	      0.67953901	     19.56539560	     -5.19780468	      0.00000000	    -12.23353960	      3.09876326	     -1.15582975	     52.82684451	      0.92200237	    -19.40903869	    -13.08684024	      0.00000000
      7.60000000	    -12.48233982	      0.06631516	     -1.45929259	      2.23677413	      1.00141628	      0.99582639	     50.80472796	      5.88042272	      1.28575286	     35.72242746	      0.62347398	     19.55729175	     -1.88537164	      0.00000000	    -11.40412500	      3.77090417	     -0.32159633	     57.15961424	      0.99762347	    -19.84868786	    -14.16611783	      0.00000000
      7.60666667	    -11.75478931	     -0.16946228	     -1.57588733	      2.23695402	      0.99898512	      0.99508155	     48.70049832	      6.02369120	      1.47900412	     33.03111139	      0.57650165	     19.43399778	      1.84067020	      0.00000000	    -10.91532281	      3.98181165	      0.22808718	     61.47682363	      1.07297299	    -20.40542996	    -15.13185093	      0.00000000
      7.61333333	    -11.42023455	     -0.29507421	     -2.04751234	      2.23660662	      0.99535812	      0.99495163	     47.20244107	      6.53699618	      2.51604917	     30.98566163	      0.54080182	     18.67163102	      3.87685369	      0.00000000	     -9.86712591	      4.23323627	      0.14873013	     65.92105631	      1.15053948	    -21.01890408	    -15.99024877	      0.00000000
      7.62000000	    -11.02020765	     -0.62863322	     -2.57994464	      2.23624328	      0.99150530	      0.99495810	     45.79527134	      7.19809192	      3.24335980	     29.64918101	      0.51747583	     17.52117648	      5.43327951	      0.00000000	     -8.83330655	      4.18570104	     -0.19327460	     70.35017970	      1.22784227	    -21.55411527	    -16.83232340	      0.00000000
      7.62666667	    -10.57064265	     -1.24123694	     -3.15757140	      2.23583241	      0.98748370	      0.99512327	     44.50190422	      8.04668926	      3.46915279	     29.01919874	      0.50648056	     15.90904422	      6.13457176	      0.00000000	     -7.81004351	      3.63767349	     -0.88758417	     74.75792806	      1.30477199	    -22.08743143	    -17.69545462	      0.00000000
      7.63333333	    -10.07974659	     -1.92938530	     -3.87962670	      2.23516319	      0.98315103	      0.99549011	     43.44445666	      9.02982827	      3.48067063	     29.32894873	      0.51188672	     13.99842869	      6.22727576	      0.00000000	     -6.79024417	      2.94144321	     -1.79044641	     79.10916075	      1.38071532	    -22.35307620	    -18.58506761	      0.00000000
      7.64000000	     -9.85030480	     -2.79043593	     -4.76848172	      2.23398391	      0.97844092	      0.99649227	     42.64201734	     10.56099433	      4.29486086	     29.97125891	      0.52309715	     11.46828976	      3.75865182	      0.00000000	     -5.41878223	      1.81743069	     -2.97951227	     83.49486604	      1.45726032	    -22.44504484	    -19.29737097	      0.00000000
      7.64666667	     -9.42394526	     -3.63359403	     -5.61703509	      2.23285825	      0.97361908	      0.99724553	     42.04696076	     11.68933278	      3.69661221	     31.82210301	      0.55540047	      9.74336179	      3.02324242	      0.00000000	     -4.27225066	      0.68323323	     -4.07378734	     87.71417045	      1.53090107	    -22.35867526	    -20.26026679	      0.00000000
